<svg width="34" height="34" viewBox="0 0 34 34" fill="none" xmlns="http://www.w3.org/2000/svg">
<path d="M13.0564 9.87891C13.7106 9.87891 14.3146 9.92923 14.8681 10.0802C15.4217 10.1809 15.8747 10.3822 16.2773 10.6338C16.6799 10.8854 16.9819 11.2377 17.1832 11.6907C17.3845 12.1436 17.4851 12.6972 17.4851 13.3011C17.4851 14.0057 17.3341 14.6096 16.9819 15.0625C16.6799 15.5155 16.1766 15.9181 15.5727 16.22C16.4283 16.4717 17.0825 16.9246 17.4851 17.5285C17.8877 18.1325 18.1394 18.8873 18.1394 19.7429C18.1394 20.4475 17.9884 21.0514 17.7368 21.5547C17.4851 22.0579 17.0825 22.5109 16.6296 22.8128C16.1766 23.1148 15.623 23.3664 15.0191 23.5174C14.4152 23.6684 13.8113 23.769 13.2074 23.769H6.46362V9.87891H13.0564ZM12.6538 15.5155C13.2074 15.5155 13.6603 15.3645 14.0126 15.1129C14.3649 14.8612 14.5159 14.4083 14.5159 13.8547C14.5159 13.5527 14.4655 13.2508 14.3649 13.0495C14.2642 12.8482 14.1132 12.6972 13.9119 12.5462C13.7106 12.4456 13.5093 12.3449 13.2577 12.2946C13.0061 12.2443 12.7544 12.2443 12.4525 12.2443H9.53354V15.5155H12.6538ZM12.8048 21.454C13.1067 21.454 13.4087 21.4037 13.6603 21.3533C13.9119 21.303 14.1636 21.2024 14.3649 21.0514C14.5662 20.9004 14.7172 20.7494 14.8681 20.4978C14.9688 20.2462 15.0695 19.9442 15.0695 19.5919C15.0695 18.8873 14.8681 18.3841 14.4655 18.0318C14.0629 17.7298 13.5093 17.5789 12.8551 17.5789H9.53354V21.454H12.8048ZM22.5178 21.4037C22.9204 21.8063 23.5243 22.0076 24.3295 22.0076C24.8831 22.0076 25.3864 21.8566 25.789 21.605C26.1916 21.303 26.4432 21.0011 26.5439 20.6991H29.0099C28.6073 21.9069 28.0034 22.7625 27.1981 23.3161C26.3929 23.8193 25.4367 24.1213 24.2792 24.1213C23.474 24.1213 22.7694 23.9703 22.1152 23.7187C21.4609 23.4671 20.9577 23.1148 20.5047 22.6115C20.0518 22.1586 19.6995 21.605 19.4982 20.9507C19.2466 20.2965 19.1459 19.5919 19.1459 18.7867C19.1459 18.0318 19.2466 17.3272 19.4982 16.673C19.7498 16.0187 20.1021 15.4651 20.555 14.9619C21.008 14.5089 21.5616 14.1063 22.1655 13.8547C22.8197 13.6031 23.474 13.4521 24.2792 13.4521C25.1348 13.4521 25.8896 13.6031 26.5439 13.9554C27.1981 14.3076 27.7014 14.7102 28.104 15.3142C28.5066 15.8678 28.8086 16.522 29.0099 17.2266C29.1105 17.9311 29.1609 18.6357 29.1105 19.4409H21.8132C21.8132 20.2462 22.1152 21.0011 22.5178 21.4037ZM25.6883 16.1194C25.3361 15.7671 24.7825 15.5658 24.1282 15.5658C23.6753 15.5658 23.323 15.6665 23.021 15.8174C22.7191 15.9684 22.5178 16.1697 22.3165 16.371C22.1152 16.5723 22.0145 16.824 21.9642 17.0756C21.9139 17.3272 21.8635 17.5285 21.8635 17.7298H26.3929C26.2923 16.9749 26.0406 16.4717 25.6883 16.1194ZM21.2596 10.8351H26.8962V12.1939H21.2596V10.8351Z" fill="#FF7A39"/>
</svg>
