<svg width="71" height="71" viewBox="0 0 71 71" fill="none" xmlns="http://www.w3.org/2000/svg">
<path fill-rule="evenodd" clip-rule="evenodd" d="M35.5007 40.2334C45.9572 40.2334 54.434 31.7566 54.434 21.3C54.434 10.8434 45.9572 2.3667 35.5007 2.3667C25.0441 2.3667 16.5673 10.8434 16.5673 21.3C16.5673 31.7566 25.0441 40.2334 35.5007 40.2334Z" stroke="#FF7A39" stroke-width="4" stroke-linecap="round"/>
<path fill-rule="evenodd" clip-rule="evenodd" d="M35.4999 30.7663C40.7282 30.7663 44.9665 26.528 44.9665 21.2997C44.9665 16.0714 40.7282 11.833 35.4999 11.833C30.2716 11.833 26.0332 16.0714 26.0332 21.2997C26.0332 26.528 30.2716 30.7663 35.4999 30.7663Z" stroke="#FF7A39" stroke-width="4" stroke-linecap="round"/>
<path d="M35.5007 40.2334V68.6334" stroke="#FF7A39" stroke-width="4" stroke-linecap="round"/>
<path fill-rule="evenodd" clip-rule="evenodd" d="M9.46777 56.7997C9.46777 56.7997 20.1178 70.9997 35.5011 56.7997C50.8844 42.5997 61.5344 56.7997 61.5344 56.7997C61.5344 56.7997 50.8844 70.9997 35.5011 56.7997C18.9344 42.5997 9.46777 56.7997 9.46777 56.7997Z" stroke="#FF7A39" stroke-width="4" stroke-linecap="round"/>
</svg>
