<svg width="71" height="71" viewBox="0 0 71 71" fill="none" xmlns="http://www.w3.org/2000/svg">
<path fill-rule="evenodd" clip-rule="evenodd" d="M53.7663 5.33069L64.1516 15.0151C66.0634 16.7979 66.168 19.7931 64.3852 21.7049L26.232 62.6192C25.8544 63.0241 25.3468 63.2838 24.7976 63.3531L7.87246 65.4896C7.6131 65.5223 7.37631 65.3386 7.34357 65.0793C7.33999 65.0509 7.33898 65.0222 7.34058 64.9936L8.2912 47.9607C8.32206 47.4079 8.54574 46.8835 8.92332 46.4785L47.0765 5.56431C48.8593 3.65244 51.8545 3.54785 53.7663 5.33069Z" stroke="#FF7A39" stroke-width="4" stroke-linecap="round"/>
<path d="M27.2201 61.4749C23.2878 59.9652 19.8792 57.8653 16.9944 55.1752C14.1096 52.4851 11.7628 49.218 9.9541 45.374V45.374" stroke="#FF7A39" stroke-width="4" stroke-linecap="round"/>
<path fill-rule="evenodd" clip-rule="evenodd" d="M40.6211 12.4878L57.9298 28.6284L40.6211 12.4878Z" stroke="#FF7A39" stroke-width="4" stroke-linecap="round"/>
<path d="M17.75 54.4711L40.9817 29.5835" stroke="#FF7A39" stroke-width="4" stroke-linecap="round"/>
</svg>
