<svg width="71" height="71" viewBox="0 0 71 71" fill="none" xmlns="http://www.w3.org/2000/svg">
<path fill-rule="evenodd" clip-rule="evenodd" d="M43.2905 27.5765C40.5178 24.8038 40.5178 20.3083 43.2905 17.5356C46.0632 14.7629 50.5587 14.7629 53.3314 17.5356C56.1041 20.3083 56.1041 24.8038 53.3314 27.5765C50.5587 30.3492 46.0632 30.3492 43.2905 27.5765Z" stroke="#FF7A39" stroke-width="4" stroke-linecap="round"/>
<path fill-rule="evenodd" clip-rule="evenodd" d="M16.5674 29.5835L41.4174 54.4335L16.5674 29.5835Z" stroke="#FF7A39" stroke-width="4" stroke-linecap="round"/>
<path d="M5.53187 65.336L15.3841 55.6167" stroke="#FF7A39" stroke-width="4" stroke-linecap="round"/>
<path d="M4.73411 52.0666L8.28411 48.5166" stroke="#FF7A39" stroke-width="4" stroke-linecap="round"/>
<path d="M18.9343 66.2668L22.4843 62.7168" stroke="#FF7A39" stroke-width="4" stroke-linecap="round"/>
<path fill-rule="evenodd" clip-rule="evenodd" d="M40.2335 54.4334L65.3881 29.2787C65.9507 28.7161 66.2668 27.9531 66.2668 27.1574V7.7334C66.2668 6.07654 64.9236 4.7334 63.2668 4.7334H43.8428C43.0471 4.7334 42.2841 5.04947 41.7214 5.61208L16.5668 30.7667H5.94057C5.49511 30.7667 5.27203 31.3053 5.58701 31.6203L39.3799 65.4132C39.6949 65.7282 40.2335 65.5051 40.2335 65.0596V54.4334Z" stroke="#FF7A39" stroke-width="4" stroke-linecap="round"/>
</svg>
