<svg width="204" height="176" viewBox="0 0 204 176" fill="none" xmlns="http://www.w3.org/2000/svg">
<path d="M84.5854 126.956C83.5488 133.578 81.8902 139.889 79.6098 145.891C77.3293 151.685 74.5305 156.858 71.2134 161.411C67.8963 165.964 64.2683 169.585 60.3293 172.275C56.5976 174.758 52.7622 176 48.8232 176C41.3598 176 33.689 174.862 25.811 172.586C18.1402 170.309 12.128 166.481 7.77439 161.101C6.53049 159.238 5.28659 157.065 4.04268 154.582C2.79878 152.099 1.86585 149.098 1.2439 145.58C0.621951 142.062 0.207317 137.82 0 132.854C0 127.887 0.518293 122.093 1.55488 115.471C2.79878 105.952 4.76829 96.7431 7.46341 87.8448C10.1585 78.9465 14.3049 69.8413 19.9024 60.5291C25.7073 51.2169 33.2744 41.6978 42.6037 31.9718C51.7832 22.4107 63.3638 12.1786 77.3454 1.27535C78.2402 0.577588 79.5359 0.768081 80.1951 1.69168L94.023 21.0683C94.6543 21.953 94.4624 23.1801 93.5955 23.8355C76.1668 37.0133 63.6268 48.7272 55.9756 58.9771C48.3049 69.3239 43.9512 78.4292 42.9146 86.2928C42.5 90.0176 43.6402 92.9148 46.3354 94.9841C49.0305 97.0535 52.5549 98.709 56.9085 99.9506C66.0305 102.227 73.0793 105.848 78.0549 110.815C83.2378 115.574 85.4146 120.955 84.5854 126.956ZM193.427 126.956C192.39 133.578 190.732 139.889 188.451 145.891C186.171 151.685 183.372 156.858 180.055 161.411C176.738 165.964 173.11 169.585 169.171 172.275C165.439 174.758 161.604 176 157.665 176C150.201 176 142.53 174.862 134.652 172.586C126.982 170.309 120.97 166.481 116.616 161.101C115.372 159.238 114.128 157.065 112.884 154.582C111.64 152.099 110.707 149.098 110.085 145.58C109.463 142.062 109.049 137.82 108.841 132.854C108.841 127.887 109.36 122.093 110.396 115.471C111.64 105.952 113.61 96.7431 116.305 87.8448C119 78.9465 123.146 69.8413 128.744 60.5291C134.549 51.2169 142.116 41.6978 151.445 31.9718C160.625 22.4107 172.205 12.1786 186.187 1.27535C187.082 0.577588 188.377 0.768081 189.037 1.69168L202.864 21.0683C203.496 21.953 203.304 23.1801 202.437 23.8355C185.008 37.0133 172.468 48.7272 164.817 58.9771C157.146 69.3239 152.793 78.4292 151.756 86.2928C151.341 90.0176 152.482 92.9148 155.177 94.9841C157.872 97.0535 161.396 98.709 165.75 99.9506C174.872 102.227 181.921 105.848 186.896 110.815C192.079 115.574 194.256 120.955 193.427 126.956Z" fill="#FFEEE6"/>
</svg>
