<svg width="34" height="34" viewBox="0 0 34 34" fill="none" xmlns="http://www.w3.org/2000/svg">
<path d="M25.1114 13.7217C25.8349 13.7217 26.558 13.7217 27.2848 13.7217C27.2887 14.4488 27.2957 15.1795 27.2996 15.9063C28.0264 15.9135 28.7571 15.9172 29.4842 15.9208C29.4842 16.6479 29.4842 17.371 29.4842 18.0981C28.7575 18.1017 28.0267 18.1054 27.2996 18.109C27.2924 18.8398 27.2887 19.5665 27.2848 20.2972C26.558 20.2936 25.8306 20.2972 25.1075 20.2972C25.1005 19.5665 25.1005 18.8398 25.0929 18.1127C24.3661 18.1051 23.6354 18.1017 22.9083 18.0978C22.9083 17.3707 22.9083 16.6476 22.9083 15.9205C23.6354 15.9168 24.3625 15.9132 25.0929 15.9059C25.0965 15.1795 25.1038 14.4488 25.1114 13.7217Z" fill="#FF7A39"/>
<path d="M5.4057 17.0099C5.25585 13.0645 8.71167 9.4185 12.661 9.37119C14.6739 9.19951 16.6323 9.98118 18.1556 11.2561C17.5307 11.9431 16.8949 12.6223 16.2158 13.258C14.8747 12.4433 13.2601 11.8224 11.6928 12.3738C9.16486 13.0936 7.63394 16.0784 8.56943 18.5514C9.34416 21.1343 12.4857 22.5518 14.9478 21.4667C16.2227 21.0102 17.0633 19.8339 17.4321 18.57C15.971 18.5409 14.5095 18.559 13.0484 18.5187C13.0448 17.6494 13.0411 16.7833 13.0448 15.914C15.4814 15.9104 17.9217 15.9031 20.362 15.9249C20.5118 18.0549 20.1976 20.3344 18.8129 22.044C16.9167 24.4843 13.4136 25.2004 10.5638 24.2431C7.53933 23.2497 5.33987 20.2028 5.4057 17.0099Z" fill="#FF7A39"/>
</svg>
