<svg width="71" height="71" viewBox="0 0 71 71" fill="none" xmlns="http://www.w3.org/2000/svg">
<path fill-rule="evenodd" clip-rule="evenodd" d="M4.15539 18.5741C3.06845 19.0541 2.36719 20.1303 2.36719 21.3185V23.7864C2.36719 25.4433 3.71033 26.7864 5.36719 26.7864H35.5005H65.6339C67.2907 26.7864 68.6339 25.4433 68.6339 23.7864V21.3185C68.6339 20.1303 67.9326 19.0541 66.8457 18.5741L36.3084 5.09012C35.7938 4.86289 35.2073 4.86289 34.6927 5.09012L4.15539 18.5741Z" fill="#FF7A39" stroke="#FEFEFE" stroke-width="4" stroke-linecap="round"/>
<path fill-rule="evenodd" clip-rule="evenodd" d="M11.834 29.2605L11.834 55.6598C11.834 55.9981 11.9989 56.3092 12.2876 56.4856C14.5623 57.8747 25.0315 63.8999 35.5007 63.8999C45.9698 63.8999 56.439 57.8747 58.7137 56.4856C59.0024 56.3092 59.1673 55.9981 59.1673 55.6598V29.2605" fill="#FF7A39"/>
<path d="M11.834 29.2605L11.834 55.6598C11.834 55.9981 11.9989 56.3092 12.2876 56.4856C14.5623 57.8747 25.0315 63.8999 35.5007 63.8999C45.9698 63.8999 56.439 57.8747 58.7137 56.4856C59.0024 56.3092 59.1673 55.9981 59.1673 55.6598V29.2605" stroke="#FEFEFE" stroke-width="4" stroke-linecap="round"/>
<path fill-rule="evenodd" clip-rule="evenodd" d="M68.6335 23.075V63.9V23.075Z" fill="#FF7A39"/>
<path d="M68.6335 23.075V63.9" stroke="#FEFEFE" stroke-width="4" stroke-linecap="round"/>
</svg>
