<svg width="71" height="71" viewBox="0 0 71 71" fill="none" xmlns="http://www.w3.org/2000/svg">
<path fill-rule="evenodd" clip-rule="evenodd" d="M35.4992 56.7999C47.2629 56.7999 56.7992 47.2636 56.7992 35.5C56.7992 23.7363 47.2629 14.2 35.4992 14.2C23.7356 14.2 14.1992 23.7363 14.1992 35.5C14.1992 47.2636 23.7356 56.7999 35.4992 56.7999Z" fill="#FF7A39" stroke="#FEFEFE" stroke-width="4" stroke-linecap="round"/>
<path fill-rule="evenodd" clip-rule="evenodd" d="M35.5005 68.6334C53.7996 68.6334 68.6339 53.7991 68.6339 35.5C68.6339 17.201 53.7996 2.3667 35.5005 2.3667C17.2015 2.3667 2.36719 17.201 2.36719 35.5C2.36719 53.7991 17.2015 68.6334 35.5005 68.6334Z" fill="#FF7A39" stroke="#FEFEFE" stroke-width="4" stroke-linecap="round"/>
<path fill-rule="evenodd" clip-rule="evenodd" d="M2.36621 35.5H21.2995H2.36621Z" fill="#FF7A39"/>
<path d="M2.36621 35.5H21.2995" stroke="#FEFEFE" stroke-width="4" stroke-linecap="round"/>
<path fill-rule="evenodd" clip-rule="evenodd" d="M49.6973 35.5H68.6306H49.6973Z" fill="#FF7A39"/>
<path d="M49.6973 35.5H68.6306" stroke="#FEFEFE" stroke-width="4" stroke-linecap="round"/>
<path fill-rule="evenodd" clip-rule="evenodd" d="M35.4997 21.3V2.3667V21.3Z" fill="#FF7A39"/>
<path d="M35.4997 21.3V2.3667" stroke="#FEFEFE" stroke-width="4" stroke-linecap="round"/>
<path fill-rule="evenodd" clip-rule="evenodd" d="M35.4997 68.6333V49.7V68.6333Z" fill="#FF7A39"/>
<path d="M35.4997 68.6333V49.7" stroke="#FEFEFE" stroke-width="4" stroke-linecap="round"/>
</svg>
