<svg width="71" height="71" viewBox="0 0 71 71" fill="none" xmlns="http://www.w3.org/2000/svg">
<path fill-rule="evenodd" clip-rule="evenodd" d="M16.5672 61.5332C24.4096 61.5332 30.7672 56.765 30.7672 50.8832C30.7672 45.0013 24.4096 40.2332 16.5672 40.2332C8.72474 40.2332 2.36719 45.0013 2.36719 50.8832C2.36719 56.765 8.72474 61.5332 16.5672 61.5332Z" fill="#FF7A39" stroke="#FEFEFE" stroke-width="4" stroke-linecap="round"/>
<path fill-rule="evenodd" clip-rule="evenodd" d="M54.4354 61.5332C62.2778 61.5332 68.6353 56.765 68.6353 50.8832C68.6353 45.0013 62.2778 40.2332 54.4354 40.2332C46.5929 40.2332 40.2354 45.0013 40.2354 50.8832C40.2354 56.765 46.5929 61.5332 54.4354 61.5332Z" fill="#FF7A39" stroke="#FEFEFE" stroke-width="4" stroke-linecap="round"/>
<path fill-rule="evenodd" clip-rule="evenodd" d="M23.668 41.4165C23.668 41.4165 28.4013 37.8665 35.5013 37.8665C42.6013 37.8665 46.1513 41.4165 46.1513 41.4165" fill="#FF7A39"/>
<path d="M23.668 41.4165C23.668 41.4165 28.4013 37.8665 35.5013 37.8665C42.6013 37.8665 46.1513 41.4165 46.1513 41.4165" stroke="#FEFEFE" stroke-width="4" stroke-linecap="round"/>
<path fill-rule="evenodd" clip-rule="evenodd" d="M2.36719 50.8832V12.4666C2.36719 10.8097 3.71033 9.46655 5.36719 9.46655H9.46719" fill="#FF7A39"/>
<path d="M2.36719 50.8832V12.4666C2.36719 10.8097 3.71033 9.46655 5.36719 9.46655H9.46719" stroke="#FEFEFE" stroke-width="4" stroke-linecap="round"/>
<path fill-rule="evenodd" clip-rule="evenodd" d="M68.6343 50.8832V12.4666C68.6343 10.8097 67.2911 9.46655 65.6343 9.46655H61.5343" fill="#FF7A39"/>
<path d="M68.6343 50.8832V12.4666C68.6343 10.8097 67.2911 9.46655 65.6343 9.46655H61.5343" stroke="#FEFEFE" stroke-width="4" stroke-linecap="round"/>
</svg>
