<svg width="71" height="71" viewBox="0 0 71 71" fill="none" xmlns="http://www.w3.org/2000/svg">
<path d="M68.8226 40.2334V18.9709C68.8226 18.2296 68.4219 17.5551 67.7557 17.2302C63.6792 15.2425 48.6557 8.45481 35.5007 9.46674C24.1187 10.3423 18.567 18.9914 16.4489 23.4316C15.721 24.9575 16.2883 26.7087 17.6429 27.7202L19.6292 29.2034C20.9012 30.1533 22.6146 30.261 23.9955 29.4779L37.1237 22.0336C37.5622 21.785 38.1131 21.8623 38.4663 22.222L64.5596 48.8023C66.3667 50.6432 66.4485 53.5662 64.747 55.5052V55.5052C62.9665 57.5343 59.885 57.7533 57.8354 55.9965L44.9674 44.9667" stroke="#FEFEFE" stroke-width="4" stroke-linecap="round"/>
<path d="M23.7858 13.0167L3.47671 10.7727C2.88455 10.7073 2.36688 11.1709 2.36688 11.7667V44.7024C2.36688 45.6378 2.69142 46.5405 3.31167 47.2407C7.49032 51.9584 24.5546 70.0964 34.7578 63.9001" stroke="#FEFEFE" stroke-width="4" stroke-linecap="round"/>
<path d="M44.9669 44.9668L53.8058 52.7181C55.6515 54.3366 55.8878 57.1245 54.3409 59.0305V59.0305C52.7077 61.043 49.7292 61.2948 47.7813 59.5852L37.8669 50.8835" stroke="#FEFEFE" stroke-width="4" stroke-linecap="round"/>
<path d="M37.8666 50.8834L43.8627 56.13C45.7929 57.8189 46.0229 60.7392 44.381 62.7095V62.7095C42.7343 64.6855 39.8094 64.9809 37.8008 63.3741L29.5833 56.8001" stroke="#FEFEFE" stroke-width="4" stroke-linecap="round"/>
</svg>
