<svg width="34" height="34" viewBox="0 0 34 34" fill="none" xmlns="http://www.w3.org/2000/svg">
<path d="M13.4593 17C13.4593 15.0441 15.0444 13.4581 17.0004 13.4581C18.9563 13.4581 20.5423 15.0441 20.5423 17C20.5423 18.9559 18.9563 20.542 17.0004 20.542C15.0444 20.542 13.4593 18.9559 13.4593 17ZM11.5446 17C11.5446 20.0133 13.9871 22.4558 17.0004 22.4558C20.0136 22.4558 22.4562 20.0133 22.4562 17C22.4562 13.9868 20.0136 11.5442 17.0004 11.5442C13.9871 11.5442 11.5446 13.9868 11.5446 17ZM21.3972 11.3279C21.3971 11.58 21.4717 11.8266 21.6118 12.0363C21.7518 12.246 21.9508 12.4095 22.1838 12.5061C22.4167 12.6027 22.6731 12.6281 22.9204 12.579C23.1677 12.5299 23.395 12.4085 23.5734 12.2303C23.7517 12.0521 23.8733 11.8249 23.9226 11.5776C23.9719 11.3303 23.9467 11.0739 23.8503 10.8409C23.7539 10.6079 23.5906 10.4087 23.3809 10.2685C23.1713 10.1284 22.9248 10.0535 22.6727 10.0534H22.6722C22.3341 10.0535 22.01 10.1878 21.771 10.4268C21.5319 10.6658 21.3975 10.9899 21.3972 11.3279ZM12.7079 25.6485C11.672 25.6013 11.1089 25.4288 10.7348 25.283C10.2387 25.0899 9.88476 24.8599 9.51263 24.4882C9.1405 24.1166 8.91015 23.763 8.71788 23.267C8.57202 22.893 8.39947 22.3298 8.35238 21.2939C8.30087 20.1739 8.29059 19.8375 8.29059 17.0001C8.29059 14.1627 8.30172 13.8272 8.35238 12.7063C8.39956 11.6704 8.57338 11.1083 8.71788 10.7332C8.911 10.2371 9.14101 9.88321 9.51263 9.51108C9.88425 9.13895 10.2379 8.9086 10.7348 8.71633C11.1088 8.57047 11.672 8.39792 12.7079 8.35083C13.8278 8.29932 14.1643 8.28903 17.0004 8.28903C19.8365 8.28903 20.1732 8.30017 21.2941 8.35083C22.33 8.398 22.8921 8.57183 23.2672 8.71633C23.7633 8.9086 24.1172 9.13946 24.4894 9.51108C24.8615 9.8827 25.091 10.2371 25.2841 10.7332C25.43 11.1072 25.6025 11.6704 25.6496 12.7063C25.7011 13.8272 25.7114 14.1627 25.7114 17.0001C25.7114 19.8375 25.7011 20.173 25.6496 21.2939C25.6024 22.3298 25.429 22.8928 25.2841 23.267C25.091 23.763 24.861 24.117 24.4894 24.4882C24.1178 24.8595 23.7633 25.0899 23.2672 25.283C22.8932 25.4289 22.33 25.6014 21.2941 25.6485C20.1742 25.7 19.8377 25.7103 17.0004 25.7103C14.163 25.7103 13.8275 25.7 12.7079 25.6485ZM12.6199 6.43935C11.4888 6.49086 10.7159 6.6702 10.0409 6.93286C9.34187 7.20409 8.7501 7.56798 8.15875 8.15839C7.56741 8.7488 7.20446 9.3415 6.93322 10.0405C6.67057 10.716 6.49122 11.4884 6.43971 12.6195C6.38735 13.7524 6.37537 14.1146 6.37537 17C6.37537 19.8854 6.38735 20.2476 6.43971 21.3805C6.49122 22.5117 6.67057 23.2841 6.93322 23.9595C7.20446 24.6581 7.56749 25.2515 8.15875 25.8416C8.75001 26.4318 9.34187 26.7951 10.0409 27.0671C10.7172 27.3298 11.4888 27.5091 12.6199 27.5607C13.7534 27.6122 14.115 27.625 17.0004 27.625C19.8858 27.625 20.248 27.613 21.3808 27.5607C22.512 27.5091 23.2844 27.3298 23.9598 27.0671C24.6584 26.7951 25.2506 26.432 25.842 25.8416C26.4333 25.2512 26.7955 24.6581 27.0675 23.9595C27.3302 23.2841 27.5104 22.5116 27.561 21.3805C27.6125 20.2467 27.6245 19.8854 27.6245 17C27.6245 14.1146 27.6125 13.7524 27.561 12.6195C27.5095 11.4883 27.3302 10.7155 27.0675 10.0405C26.7955 9.34193 26.4324 8.74973 25.842 8.15839C25.2516 7.56704 24.6584 7.20409 23.9607 6.93286C23.2844 6.6702 22.5119 6.49001 21.3817 6.43935C20.2488 6.38784 19.8866 6.375 17.0012 6.375C14.1158 6.375 13.7534 6.38699 12.6199 6.43935Z" fill="#FF7A39"/>
</svg>
