<svg width="34" height="34" viewBox="0 0 34 34" fill="none" xmlns="http://www.w3.org/2000/svg">
<path fill-rule="evenodd" clip-rule="evenodd" d="M20.7794 25.4181C21.9676 25.9379 22.4132 24.8487 22.4132 24.8487L25.5571 9.05508C25.5323 7.99062 24.0965 8.63425 24.0965 8.63425L6.4958 15.5409C6.4958 15.5409 5.65413 15.8379 5.7284 16.3578C5.80266 16.8776 6.47104 17.1252 6.47104 17.1252L10.9022 18.6105C10.9022 18.6105 12.2389 22.9921 12.5112 23.8338C12.7588 24.6507 12.9816 24.6754 12.9816 24.6754C13.2291 24.7745 13.4519 24.6012 13.4519 24.6012L16.3235 22.0019L20.7794 25.4181ZM21.5467 11.8523C21.5467 11.8523 22.1656 11.481 22.1408 11.8523C22.1408 11.8523 22.2398 11.9018 21.918 12.2484C21.621 12.5455 14.6153 18.8332 13.6746 19.6749C13.6004 19.7244 13.5509 19.7987 13.5509 19.8977L13.2786 22.2246C13.2291 22.4722 12.9072 22.4969 12.833 22.2742L11.6695 18.4619C11.62 18.3134 11.6695 18.1401 11.818 18.0411L21.5467 11.8523Z" fill="#FF7A39"/>
</svg>
